<?xml version="1.0" standalone="no"?>
<!DOCTYPE svg PUBLIC "-//W3C//DTD SVG 20010904//EN"
 "http://www.w3.org/TR/2001/REC-SVG-20010904/DTD/svg10.dtd">
<svg version="1.0" xmlns="http://www.w3.org/2000/svg"
 width="204.000000pt" height="204.000000pt" viewBox="0 0 204.000000 204.000000"
 preserveAspectRatio="xMidYMid meet">
<metadata>
Created by potrace 1.16, written by Peter Selinger 2001-2019
</metadata>
<g transform="translate(0.000000,204.000000) scale(0.100000,-0.100000)"
fill="#000000" stroke="none">
<path d="M729 2003 c-52 -8 -132 -66 -164 -117 -30 -49 -30 -49 -33 -224 -4
-167 -3 -174 15 -166 10 5 51 9 91 9 l72 0 0 135 c0 107 3 140 16 158 15 22
16 22 344 22 l328 0 4 -177 c5 -255 2 -253 262 -253 l176 0 0 -578 c0 -547 -1
-580 -18 -595 -16 -15 -67 -17 -468 -19 l-449 -3 -3 -93 -3 -93 468 3 468 3
50 26 c57 29 110 92 125 149 7 26 10 249 8 667 -3 578 -4 631 -21 660 -25 47
-431 448 -475 469 -34 17 -68 19 -402 20 -201 1 -377 0 -391 -3z"/>
<path d="M357 1357 c-12 -13 -32 -35 -43 -49 -16 -19 -36 -28 -75 -33 -68 -9
-94 -36 -103 -101 -9 -59 -10 -62 -58 -98 -46 -35 -55 -70 -33 -137 16 -49 16
-55 0 -109 -22 -74 -15 -103 35 -138 39 -27 60 -68 60 -118 0 -35 32 -64 85
-77 l50 -12 5 -222 c3 -128 9 -226 15 -231 29 -28 53 -22 141 36 l90 59 79
-54 c97 -65 109 -69 140 -49 l25 16 2 223 3 222 50 12 c61 15 81 38 90 104 5
34 14 57 28 68 82 65 90 87 60 172 -16 45 -16 50 0 84 31 65 23 101 -32 154
-40 39 -49 54 -55 95 -10 64 -39 92 -102 101 -42 6 -56 14 -95 56 -52 55 -79
61 -150 32 -38 -15 -45 -15 -88 0 -63 23 -98 21 -124 -6z m244 -232 c59 -20
112 -65 146 -123 36 -61 39 -166 6 -227 -86 -162 -302 -188 -420 -51 -32 39
-63 117 -63 161 0 56 33 128 79 175 73 73 161 96 252 65z"/>
</g>
</svg>
