<?xml version="1.0" standalone="no"?>
<!DOCTYPE svg PUBLIC "-//W3C//DTD SVG 20010904//EN"
 "http://www.w3.org/TR/2001/REC-SVG-20010904/DTD/svg10.dtd">
<svg version="1.0" xmlns="http://www.w3.org/2000/svg"
 width="158.000000pt" height="207.000000pt" viewBox="0 0 158.000000 207.000000"
 preserveAspectRatio="xMidYMid meet">
<metadata>
Created by potrace 1.16, written by Peter Selinger 2001-2019
</metadata>
<g transform="translate(0.000000,207.000000) scale(0.100000,-0.100000)"
fill="#000000" stroke="none">
<path d="M50 1040 l0 -1000 745 0 745 0 0 703 0 702 -298 298 -297 297 -448 0
-447 0 0 -1000z m750 565 l0 -315 310 0 310 0 0 -565 0 -565 -625 0 -625 0 0
880 0 880 315 0 315 0 0 -315z m590 -187 c0 -5 -106 -8 -235 -8 l-235 0 0 242
0 243 235 -235 c129 -129 235 -238 235 -242z"/>
<path d="M307 1784 c-4 -4 -7 -31 -7 -61 l0 -53 183 2 182 3 0 55 0 55 -176 3
c-96 1 -178 -1 -182 -4z"/>
<path d="M307 1534 c-4 -4 -7 -31 -7 -61 l0 -53 183 2 182 3 0 55 0 55 -176 3
c-96 1 -178 -1 -182 -4z"/>
<path d="M738 1078 c-3 -40 -5 -43 -47 -55 -86 -25 -141 -90 -141 -168 0 -83
65 -134 230 -180 52 -14 105 -33 118 -41 31 -20 26 -64 -8 -82 -35 -18 -170
-9 -245 17 -33 12 -64 20 -71 17 -16 -6 -39 -95 -28 -106 5 -5 50 -20 99 -33
l90 -24 3 -41 3 -42 54 0 c49 0 55 3 60 23 4 13 5 29 3 36 -3 15 15 27 52 35
101 22 159 144 112 235 -26 52 -58 70 -209 120 -115 38 -139 50 -141 67 -2 14
6 27 25 40 34 22 149 23 230 1 l51 -14 15 59 15 58 -37 9 c-20 6 -53 13 -73
17 -35 6 -43 14 -39 38 1 6 0 20 -4 33 -5 20 -11 23 -60 23 l-54 0 -3 -42z"/>
</g>
</svg>
